<svg id="Camada_1" data-name="Camada 1" xmlns="http://www.w3.org/2000/svg" xmlns:xlink="http://www.w3.org/1999/xlink" viewBox="0 0 364.05 70"><defs><style>.cls-1{fill:url(#Gradiente_sem_nome);}.cls-2{fill:#57bcb6;}.cls-3{fill:url(#Gradiente_sem_nome_2);}.cls-4{fill:#16545d;}.cls-5{fill:#5e6161;}.cls-6{fill:#61bbb8;}</style><linearGradient id="Gradiente_sem_nome" x1="37.24" y1="5.3" x2="59.01" y2="30.81" gradientTransform="matrix(1, 0, 0, -1, 0, 64)" gradientUnits="userSpaceOnUse"><stop offset="0" stop-color="#57bcb6"/><stop offset="1" stop-color="#14535a"/></linearGradient><linearGradient id="Gradiente_sem_nome_2" x1="29.31" y1="30.75" x2="25.61" y2="-1.88" xlink:href="#Gradiente_sem_nome"/></defs><g id="logo"><path class="cls-1" d="M65.74,29.6A22.61,22.61,0,0,0,49.36,13.23a22.21,22.21,0,0,1,.68,5.5V31.08A22.55,22.55,0,0,1,27.5,53.63H25.34v10.2A22.6,22.6,0,0,0,26,69.32a22.62,22.62,0,0,0,5.49.68H43.87A22.54,22.54,0,0,0,66.41,47.46h0V35.1A22.69,22.69,0,0,0,65.74,29.6Z"/><path class="cls-2" d="M14.71,22.57A4.31,4.31,0,0,1,19,18.26h0V15.62A4.68,4.68,0,0,0,18.77,14a4.92,4.92,0,0,0-4.58-3.2H11.53a4.86,4.86,0,0,0-4.85,4.86v2.66a4.83,4.83,0,0,0,3.21,4.55,4.74,4.74,0,0,0,1.67.3h3.18Z"/><path class="cls-3" d="M49.37,13.23a22.69,22.69,0,0,0-5.5-.67H31.52A22.55,22.55,0,0,0,9,35.1V47.46A22.55,22.55,0,0,0,26,69.32a22.61,22.61,0,0,1-.67-5.49V51.47A22.54,22.54,0,0,1,47.87,28.93h2.18V18.73A22.7,22.7,0,0,0,49.37,13.23Zm-23.7,11.7a4.31,4.31,0,0,1-4.3,4.3H19A4.19,4.19,0,0,1,14.71,25V22.57A4.31,4.31,0,0,1,19,18.26h2.36a4.12,4.12,0,0,1,1.21.18,4.28,4.28,0,0,1,3.09,4.13Z"/><path class="cls-4" d="M7.64,24.62a3.11,3.11,0,0,0-2.89-2H3.07a3.07,3.07,0,0,0-3.07,3v1.68a3.43,3.43,0,0,0,.13.9A3,3,0,0,0,2,30.2a3,3,0,0,0,1.06.19H4.75a3.06,3.06,0,0,0,3.07-3.07V25.64A3,3,0,0,0,7.64,24.62Z"/><path class="cls-2" d="M19.36,5.29A2,2,0,0,0,17.46,4h-1.1a2,2,0,0,0-2,2V7.11a1.9,1.9,0,0,0,.09.58,2,2,0,0,0,1.93,1.43h1.1a2,2,0,0,0,2-2V6A2.16,2.16,0,0,0,19.36,5.29Z"/><path class="cls-2" d="M8,1.34A2,2,0,0,0,6.65.08,2.24,2.24,0,0,0,6.08,0H5A2,2,0,0,0,3,2V3.11a2.25,2.25,0,0,0,.08.58A2,2,0,0,0,5,5.12h1.1a2,2,0,0,0,2-2V2A1.84,1.84,0,0,0,8,1.34Z"/><path class="cls-4" d="M5.44,10.19a1.66,1.66,0,0,0-1.11-1,1.49,1.49,0,0,0-.47-.07H2.94a1.67,1.67,0,0,0-1.67,1.67h0v.92a1.56,1.56,0,0,0,.08.48,1.65,1.65,0,0,0,1,1.09,1.85,1.85,0,0,0,.57.1h.92a1.67,1.67,0,0,0,1.67-1.67h0v-.92A1.73,1.73,0,0,0,5.44,10.19Z"/><path class="cls-5" d="M101.06,32.64c1.67,1.33,2,2.39,2,5.32v6.79c0,2.92-.38,4-2,5.31-2.5,1.89-6.3,3.72-12.18,3.72a19.45,19.45,0,0,1-12.17-3.72c-1.67-1.33-2-2.39-2-5.31V38c0-2.93.38-4,2-5.32C79.25,30.75,83,29,88.88,29S98.56,30.71,101.06,32.64ZM83.5,36.93a2,2,0,0,0-.69,1.67v5.5a2,2,0,0,0,.69,1.67,9.91,9.91,0,0,0,10.77,0A2,2,0,0,0,95,44.1V38.6a2,2,0,0,0-.68-1.67,8.44,8.44,0,0,0-5.39-1.59A8.43,8.43,0,0,0,83.5,36.93Z"/><path class="cls-5" d="M175.15,53.21H167V47.9L156.86,29.5h8.88l5,9.94h.83l5.12-9.94h8.58L175.15,47.9Z"/><path class="cls-5" d="M203.79,45.68a2,2,0,0,0,.69-1.67V29.21h8.15V44.65c0,3.11-.49,4.21-2.35,5.69-2.2,1.71-5.58,3.15-10.74,3.15s-8.53-1.44-10.73-3.15c-1.86-1.48-2.36-2.58-2.36-5.69V29.21h8.16V44a2,2,0,0,0,.68,1.67,7.14,7.14,0,0,0,8.5,0Z"/><path class="cls-5" d="M215.1,29.5h8.15V47.14h12.33v6.07H215.1Z"/><path class="cls-5" d="M278.05,35.57V53.21h-8.16V35.57h-8V29.5h24.16v6.07Z"/><path class="cls-5" d="M334.46,36.32a52.37,52.37,0,0,0-8-.79c-2.73,0-4.32.6-5.27,1.36a2.13,2.13,0,0,0-.91,1.9v5.12a2.11,2.11,0,0,0,.91,1.9c.95.76,2.54,1.36,5.27,1.36a52.37,52.37,0,0,0,8-.79v6.45a41.82,41.82,0,0,1-8.12.76c-5.69,0-9.71-1.75-12-3.49-1.89-1.48-2.24-2.55-2.24-5.54V38.15c0-3,.35-4.06,2.24-5.54,2.28-1.75,6.3-3.49,12-3.49a42.6,42.6,0,0,1,8.12.75Z"/><path class="cls-5" d="M355.89,44.1H345.08v9.11h-8.16V29.5h8.16V38h10.81V29.5h8.16V53.21h-8.16Z"/><rect class="cls-5" x="105.58" y="29.5" width="8.16" height="23.71"/><polygon class="cls-5" points="122.57 40.76 131.64 29.5 122.53 29.5 113.73 41.35 122.23 53.21 132.02 53.21 122.57 40.76"/><polygon class="cls-5" points="153.03 29.5 140.13 29.5 132.13 53.21 140.51 53.21 141.77 49.41 141.77 49.41 143.74 43.34 143.74 43.34 146.01 36.29 147.08 36.29 149.35 43.34 149.32 43.34 152.58 53.21 161.04 53.21 153.03 29.5"/><path class="cls-6" d="M149.22,47c.36.29.44.52.44,1.15v1.47c0,.63-.08.86-.44,1.15a4.69,4.69,0,0,1-5.27,0c-.36-.29-.45-.52-.45-1.15V48.11c0-.63.09-.86.45-1.15a4.73,4.73,0,0,1,5.27,0Z"/><polygon class="cls-5" points="256.87 29.5 243.97 29.5 235.96 53.21 244.34 53.21 245.6 49.41 245.6 49.41 247.57 43.34 247.57 43.34 249.85 36.29 250.91 36.29 253.19 43.34 253.16 43.34 256.41 53.21 264.87 53.21 256.87 29.5"/><path class="cls-2" d="M253.05,47c.36.29.44.52.44,1.15v1.47c0,.63-.08.86-.44,1.15a4.69,4.69,0,0,1-5.27,0c-.36-.29-.44-.52-.44-1.15V48.11c0-.63.08-.86.44-1.15a4.73,4.73,0,0,1,5.27,0Z"/><rect class="cls-5" x="287.76" y="29.5" width="22.46" height="6.07"/><rect class="cls-5" x="287.74" y="38.22" width="22.46" height="6.07"/><rect class="cls-5" x="287.74" y="47.14" width="22.46" height="6.07"/></g></svg>